HIERARCHY
ROOT SpineBase
{
  OFFSET 0.000000 0.000000 0.000000
  CHANNELS 6 Xposition Yposition Zposition Zrotation Xrotation Yrotation
  JOINT SpineMid
  {
    OFFSET 0.000000 26.592164 0.000000
    CHANNELS 3 Zrotation Xrotation Yrotation
    JOINT SpineShoulder
    {
      OFFSET -0.033005 19.787963 -0.645946
      CHANNELS 3 Zrotation Xrotation Yrotation
      JOINT Neck
      {
        OFFSET -0.035614 6.571613 -0.518628
        CHANNELS 3 Zrotation Xrotation Yrotation
        JOINT Head
        {
          OFFSET 3.472102 14.147983 2.271745
          CHANNELS 3 Zrotation Xrotation Yrotation
          End Site
          {
            OFFSET 0 0 0
          }
        }
      }
      JOINT ShoulderLeft
      {
        OFFSET -11.300134 -2.366189 -6.755984
        CHANNELS 3 Zrotation Xrotation Yrotation
        JOINT ElbowLeft
        {
          OFFSET -6.158684 -22.829737 -2.865610
          CHANNELS 3 Zrotation Xrotation Yrotation
          JOINT WristLeft
          {
            OFFSET 0.239227 -18.359348 -6.013812
            CHANNELS 3 Zrotation Xrotation Yrotation
            JOINT HandLeft
            {
              OFFSET 1.086389 -7.170354 -1.059867
              CHANNELS 3 Zrotation Xrotation Yrotation
              JOINT HandTipLeft
              {
                OFFSET 0.323930 -6.153936 -1.598818
                CHANNELS 3 Zrotation Xrotation Yrotation
                End Site
                {
                  OFFSET 0 0 0
                }
              }
              JOINT ThumbLeft
              {
                OFFSET 2.514164 0.023317 -1.013818
                CHANNELS 3 Zrotation Xrotation Yrotation
                End Site
                {
                  OFFSET 0 0 0
                }
              }
            }
          }
        }
      }
      JOINT ShoulderRight
      {
        OFFSET 11.232540 -4.372340 3.906478
        CHANNELS 3 Zrotation Xrotation Yrotation
        JOINT ElbowRight
        {
          OFFSET 0.640716 -22.368556 3.868983
          CHANNELS 3 Zrotation Xrotation Yrotation
          JOINT WristRight
          {
            OFFSET 2.240546 -24.434123 -6.564014
            CHANNELS 3 Zrotation Xrotation Yrotation
            JOINT HandRight
            {
              OFFSET -2.180402 -7.255979 -1.249808
              CHANNELS 3 Zrotation Xrotation Yrotation
              JOINT HandTipRight
              {
                OFFSET 1.020076 -4.883678 -1.328369
                CHANNELS 3 Zrotation Xrotation Yrotation
                End Site
                {
                  OFFSET 0 0 0
                }
              }
              JOINT ThumbRight
              {
                OFFSET -2.414859 0.543642 -3.199352
                CHANNELS 3 Zrotation Xrotation Yrotation
                End Site
                {
                  OFFSET 0 0 0
                }
              }
            }
          }
        }
      }
    }
  }
  JOINT HipLeft
  {
    OFFSET -5.435553 1.239284 -5.272357
    CHANNELS 3 Zrotation Xrotation Yrotation
    JOINT KneeLeft
    {
      OFFSET -8.063557 -31.039152 -1.349709
      CHANNELS 3 Zrotation Xrotation Yrotation
      JOINT AnkleLeft
      {
        OFFSET -3.218505 -34.917019 7.753072
        CHANNELS 3 Zrotation Xrotation Yrotation
        JOINT FootLeft
        {
          OFFSET 3.383038 -6.281460 -3.385262
          CHANNELS 3 Zrotation Xrotation Yrotation
          End Site
          {
            OFFSET 0 0 0
          }
        }
      }
    }
  }
  JOINT HipRight
  {
    OFFSET 5.165075 0.328799 -0.782324
    CHANNELS 3 Zrotation Xrotation Yrotation
    JOINT KneeRight
    {
      OFFSET -5.059137 -25.631853 -1.705267
      CHANNELS 3 Zrotation Xrotation Yrotation
      JOINT AnkleRight
      {
        OFFSET -9.000047 -39.449635 6.199594
        CHANNELS 3 Zrotation Xrotation Yrotation
        JOINT FootRight
        {
          OFFSET -0.130110 -4.522813 -8.953875
          CHANNELS 3 Zrotation Xrotation Yrotation
          End Site
          {
            OFFSET 0 0 0
          }
        }
      }
    }
  }
}
MOTION
Frames: 6
Frame Time: 0.033333
17.274941 73.241893 372.523805 -0.000000 0.000000 -22.955717 -0.000000 0.000000 22.955717 -0.000000 0.000000 0.000000 -0.000000 0.000000 0.000000 0.000000 0.000000 0.000000 -0.000000 0.000000 0.000000 -0.000000 0.000000 0.000000 -0.000000 0.000000 0.000000 -0.000000 0.000000 0.000000 0.000000 0.000000 0.000000 0.000000 0.000000 0.000000 -0.000000 0.000000 0.000000 -0.000000 0.000000 0.000000 -0.000000 0.000000 0.000000 -0.000000 0.000000 0.000000 0.000000 0.000000 0.000000 0.000000 0.000000 0.000000 -0.000000 0.000000 22.955717 -0.000000 0.000000 0.000000 -0.000000 0.000000 0.000000 0.000000 0.000000 0.000000 -0.000000 0.000000 22.955717 -0.000000 0.000000 0.000000 -0.000000 0.000000 0.000000 0.000000 0.000000 0.000000
17.263092 73.233120 372.529497 -0.010702 -0.041538 -22.887532 -0.006295 0.042431 22.887531 -0.000000 0.000000 0.000000 -0.000000 0.000000 0.000000 0.000000 0.000000 0.000000 -0.000000 0.000000 0.000000 -0.000000 0.000000 0.000000 -0.000000 0.000000 0.000000 -1.099532 -1.779234 0.175733 0.000000 0.000000 0.000000 0.000000 0.000000 0.000000 -0.000000 0.000000 0.000000 -0.000000 0.000000 0.000000 -0.000000 0.000000 0.000000 -0.611333 0.626648 0.300408 0.000000 0.000000 0.000000 0.000000 0.000000 0.000000 -0.006295 0.042431 22.887531 -0.000000 0.000000 0.000000 0.983265 11.151903 5.103575 0.000000 0.000000 0.000000 -0.006295 0.042431 22.887531 -0.000000 0.000000 0.000000 2.517662 3.255341 -4.875954 0.000000 0.000000 0.000000
17.252233 73.225511 372.535508 -0.020599 -0.078578 -22.835778 -0.011511 0.080413 22.835772 -0.000000 0.000000 0.000000 -0.000000 0.000000 0.000000 0.000000 0.000000 0.000000 -0.000000 0.000000 0.000000 -0.000000 0.000000 0.000000 0.249041 -1.312670 -0.233169 -2.189374 -1.936706 0.566933 0.000000 0.000000 0.000000 0.000000 0.000000 0.000000 -0.000000 0.000000 0.000000 0.989143 0.131048 -0.254566 -1.395830 -0.795200 0.517308 -0.758487 1.563437 0.260188 0.000000 0.000000 0.000000 0.000000 0.000000 0.000000 -0.011511 0.080413 22.835772 -0.000000 0.000000 0.000000 1.195519 19.891460 9.042005 0.000000 0.000000 0.000000 -0.011511 0.080413 22.835772 -0.000000 0.000000 0.000000 4.702380 5.649858 -8.837313 0.000000 0.000000 0.000000
17.242364 73.219066 372.541841 -0.029688 -0.111115 -22.800305 -0.015691 0.113938 22.800291 -0.000000 0.000000 0.000000 -0.000000 0.000000 0.000000 0.000000 0.000000 0.000000 -0.000000 0.000000 0.000000 -0.000000 0.000000 0.000000 0.399385 -1.881061 -0.338146 -2.925312 -2.502446 0.773352 0.000000 0.000000 0.000000 0.000000 0.000000 0.000000 -0.000000 0.000000 0.000000 1.393828 0.191692 -0.358650 -1.745781 -1.092382 0.679202 -1.341370 1.782256 0.358202 0.000000 0.000000 0.000000 0.000000 0.000000 0.000000 -0.015691 0.113938 22.800291 0.582022 -0.658806 0.193151 0.605716 27.085550 11.795490 0.000000 0.000000 0.000000 -0.187912 -0.838731 22.994414 0.530730 0.809679 -0.198962 6.505098 7.374331 -11.967724 0.000000 0.000000 0.000000
17.233485 73.213786 372.548493 -0.037971 -0.139147 -22.780990 -0.018870 0.142995 22.780967 -0.000000 0.000000 0.000000 -0.000000 0.000000 0.000000 0.000000 0.000000 0.000000 -0.000000 0.000000 0.000000 -0.000000 0.000000 0.000000 0.565654 -2.377791 -0.433189 -3.419447 -2.795716 0.929859 0.000000 0.000000 0.000000 0.000000 0.000000 0.000000 -0.000000 0.000000 0.000000 1.719580 0.247744 -0.442118 -1.805403 -1.276037 0.755009 -2.122742 1.638082 0.464450 0.000000 0.000000 0.000000 0.000000 0.000000 0.000000 -0.018870 0.142995 22.780967 0.896333 -0.818167 0.280602 0.211333 32.054709 13.872125 0.000000 0.000000 0.000000 -0.060381 -0.978180 23.012908 0.476570 1.015707 -0.236467 7.925056 8.586194 -14.364732 0.000000 0.000000 0.000000
17.225596 73.209669 372.555466 -0.045446 -0.162670 -22.777739 -0.021078 0.167579 22.777705 -0.000000 0.000000 0.000000 -0.000000 0.000000 0.000000 0.000000 0.000000 0.000000 -0.000000 0.000000 0.000000 -0.000000 0.000000 0.000000 0.746295 -2.794991 -0.517014 -3.673806 -2.820263 1.034920 0.000000 0.000000 0.000000 0.000000 0.000000 0.000000 -0.000000 0.000000 0.000000 1.953483 0.298183 -0.501441 -1.565069 -1.324937 0.736627 -3.110839 1.130415 0.585029 0.000000 0.000000 0.000000 0.000000 0.000000 0.000000 -0.021078 0.167579 22.777705 1.269369 -0.946313 0.379269 -0.114856 35.699497 15.263945 0.000000 0.000000 0.000000 0.158323 -1.058178 23.036497 0.314598 1.198209 -0.260686 8.981509 9.401285 -16.116924 0.000000 0.000000 0.000000
